#!OML:ASF H:\Terrain\Patient Classification 1\Walking\steve\steve.ASF
:FULLY-SPECIFIED
:DEGREES
277
root 7.99304 16.243 21.077 7.7242 -9.68427 -5.10814
lowerback -2.46259 5.42761 5.72902
upperback -3.3283 7.18443 0.674084
thorax -1.45283 3.48744 -2.36247
lowerneck -10.2755 -0.179035 -0.873667
upperneck 14.6473 0.00244987 -0.581211
head 6.13275 -0.0903056 -0.0400806
rclavicle -1.63792e-014 -1.85367e-014
rhumerus -12.3699 4.16021 -80.9492
rradius 58.6798
rwrist -22.0258
rhand -21.9193 -37.314
rfingers 7.12502
rthumb 4.48674 -67.2465
lclavicle -1.63792e-014 -1.85367e-014
lhumerus -63.2211 22.909 49.6485
lradius 6.25891
lwrist -23.9371
lhand -19.9945 -7.77851
lfingers 7.12502
lthumb 6.34508 22.1065
rfemur 12.0122 4.68184 24.4331
rtibia 23.3376
rfoot 5.3816 15.2113
rtoes 6.88276
lfemur -40.2913 0.939406 -13.558
ltibia 27.5331
lfoot -5.90823 5.11053
ltoes -3.63592
278
root 8.00409 16.2458 21.3294 7.70003 -9.56395 -4.91388
lowerback -2.23502 5.47214 5.26879
upperback -3.65617 7.27652 0.549756
thorax -1.95006 3.52331 -2.28256
lowerneck -10.2174 -0.367261 -1.25734
upperneck 14.9666 -0.297785 0.0964705
head 6.22575 -0.204795 0.213169
rclavicle 1.14472e-014 1.3418e-015
rhumerus -13.9734 3.3344 -81.1262
rradius 59.3129
rwrist -21.8926
rhand -21.5205 -40.3767
rfingers 7.12502
rthumb 4.87176 -70.3006
lclavicle 1.14472e-014 1.3418e-015
lhumerus -63.335 22.5706 49.5544
lradius 6.28004
lwrist -23.8978
lhand -20.1766 -6.94974
lfingers 7.12502
lthumb 6.16934 22.9404
rfemur 10.9672 4.80733 24.2086
rtibia 26.1709
rfoot 8.38141 11.9999
rtoes 12.2847
lfemur -40.4914 0.793732 -13.8161
ltibia 29.1727
lfoot -4.65228 5.5531
ltoes 1.17006
279
root 8.01677 16.2432 21.5818 7.56604 -9.53401 -4.38542
lowerback -2.32787 5.49016 4.47765
upperback -3.68369 7.2993 0.384133
thorax -1.99649 3.55038 -2.01569
lowerneck -10.314 -0.564066 -1.7253
upperneck 14.9635 -0.610771 0.862714
head 6.24727 -0.321704 0.507376
rclavicle -4.03354e-014 -3.47873e-016
rhumerus -15.1447 3.72212 -81.0516
rradius 59.8346
rwrist -22.9544
rhand -16.3565 -42.4804
rfingers 7.12502
rthumb 9.85621 -72.2297
lclavicle -4.03354e-014 -3.47873e-016
lhumerus -63.1898 22.6315 49.5541
lradius 6.34054
lwrist -23.8241
lhand -19.743 -6.17872
lfingers 7.12502
lthumb 6.58789 23.6988
rfemur 9.81152 4.8787 23.5578
rtibia 29.4002
rfoot 11.1437 8.61315
rtoes 16.5532
lfemur -40.4895 1.02893 -14.7426
ltibia 30.7871
lfoot -4.1802 5.43348
ltoes 1.46248
280
root 8.0297 16.2447 21.836 7.41743 -9.65025 -3.90123
lowerback -2.67973 5.52033 3.79861
upperback -3.50056 7.31946 0.213356
thorax -1.668 3.58375 -1.77296
lowerneck -10.4945 -0.681133 -1.98297
upperneck 14.8743 -0.79688 1.31518
head 6.25535 -0.389652 0.677553
rclavicle -5.91245e-014 -1.31198e-014
rhumerus -16.1697 4.02222 -81.1028
rradius 60.4732
rwrist -23.6113
rhand -21.2149 -38.4028
rfingers 7.12502
rthumb 5.16687 -68.3199
lclavicle -5.91245e-014 -1.31198e-014
lhumerus -62.8586 22.982 49.5433
lradius 6.33409
lwrist -23.7155
lhand -19.9093 -5.87891
lfingers 7.12502
lthumb 6.42738 24.0036
rfemur 8.71112 5.42876 22.8542
rtibia 32.7635
rfoot 13.6551 2.65638
rtoes 31.331
lfemur -40.3924 1.75347 -15.8827
ltibia 32.3521
lfoot -3.99021 4.193
ltoes -1.48613
281
root 8.03945 16.2876 22.0857 7.2005 -9.75941 -3.49268
lowerback -2.52308 5.55924 3.22931
upperback -3.5275 7.38321 0.00942865
thorax -1.82154 3.62275 -1.68937
lowerneck -10.5257 -0.835643 -2.32027
upperneck 14.9388 -1.04531 1.89963
head 6.29006 -0.482082 0.898118
rclavicle 4.29002e-014 -6.95746e-015
rhumerus -17.462 3.50658 -81.3924
rradius 60.6905
rwrist -23.4053
rhand -23.7271 -37.0834
rfingers 7.12502
rthumb 2.74089 -67.0455
lclavicle 4.29002e-014 -6.95746e-015
lhumerus -62.6412 23.1031 49.4367
lradius 6.28961
lwrist -23.4082
lhand -19.7028 -5.88458
lfingers 7.12502
lthumb 6.6267 23.9917
rfemur 6.88929 5.3967 22.2959
rtibia 36.5333
rfoot 14.9574 2.55453
rtoes 17.6571
lfemur -39.874 2.28242 -16.7988
ltibia 33.4363
lfoot -3.9252 2.71126
ltoes 0.425262
282
root 8.046 16.2842 22.3072 6.79113 -9.81426 -2.70882
lowerback -2.08065 5.49378 2.27761
upperback -3.43889 7.31315 -0.300302
thorax -2.0546 3.60246 -1.53254
lowerneck -10.8296 -0.94443 -2.55137
upperneck 15.0051 -1.25301 2.53512
head 6.37339 -0.542719 1.12051
rclavicle 2.48667e-014 1.59028e-014
rhumerus -18.4637 3.24116 -81.8438
rradius 60.738
rwrist -23.6768
rhand -24.9038 -36.6236
rfingers 7.12502
rthumb 1.60452 -66.5974
lclavicle 2.48667e-014 1.59028e-014
lhumerus -62.5717 23.3195 49.1559
lradius 6.73761
lwrist -23.0303
lhand -19.0217 -5.79319
lfingers 7.12502
lthumb 7.2842 24.0614
rfemur 5.54895 5.99925 21.4838
rtibia 40.3082
rfoot 16.7146 1.43423
rtoes 17.2983
lfemur -39.2674 2.39388 -17.9145
ltibia 34.3281
lfoot -3.92178 1.81777
ltoes 4.66601
283
root 8.0619 16.3139 22.5296 6.35935 -9.75912 -1.85245
lowerback -1.64017 5.34215 1.41752
upperback -3.23645 7.11574 -0.649857
thorax -2.15705 3.51876 -1.45693
lowerneck -11.3744 -0.896492 -2.24353
upperneck 15.0412 -1.2275 2.50348
head 6.47657 -0.511969 1.06079
rclavicle 6.51734e-014 6.16232e-015
rhumerus -19.3603 3.14394 -82.4133
rradius 61.0313
rwrist -24.0376
rhand -24.9008 -35.1734
rfingers 7.12502
rthumb 1.60734 -65.1471
lclavicle 6.51734e-014 6.16232e-015
lhumerus -62.3841 23.8222 48.8338
lradius 7.18567
lwrist -22.8494
lhand -19.0709 -5.4975
lfingers 7.12502
lthumb 7.23674 24.3588
rfemur 3.60921 5.89607 20.5661
rtibia 44.2403
rfoot 18.6838 3.71031
rtoes -1.14998
lfemur -38.313 2.30857 -19.1017
ltibia 34.6965
lfoot -4.09636 1.33364
ltoes 6.31442
284
root 8.08101 16.3177 22.7523 6.03443 -9.74807 -1.2947
lowerback -1.06099 5.23687 0.91921
upperback -3.33555 6.97719 -0.889641
thorax -2.61637 3.45217 -1.49664
lowerneck -11.2391 -0.82725 -1.96407
upperneck 14.8776 -1.13792 2.22927
head 6.3957 -0.47669 0.934841
rclavicle 4.48601e-014 -1.15295e-014
rhumerus -20.8674 3.1286 -82.9102
rradius 61.4067
rwrist -24.1796
rhand -21.4269 -36.8812
rfingers 7.12502
rthumb 4.96213 -66.8031
lclavicle 4.48601e-014 -1.15295e-014
lhumerus -62.441 24.1396 48.4965
lradius 7.48616
lwrist -22.7285
lhand -18.5786 -5.04065
lfingers 7.12502
lthumb 7.71191 24.7987
rfemur 2.40473 6.44075 19.8845
rtibia 47.8915
rfoot 20.4402 -1.59835
rtoes 14.8357
lfemur -37.4058 2.21723 -19.9521
ltibia 35.0261
lfoot -4.5202 0.872841
ltoes 7.84281
285
root 8.09679 16.3579 22.9912 5.76346 -9.98206 -0.682642
lowerback -1.01728 5.1983 0.265018
upperback -3.2465 6.91736 -1.06954
thorax -2.605 3.43614 -1.32319
lowerneck -10.8024 -0.755915 -2.08555
upperneck 14.2316 -1.04105 2.37927
head 6.11447 -0.42854 1.01002
rclavicle 2.57985e-014 -4.37326e-015
rhumerus -21.9334 3.29434 -83.3412
rradius 61.3622
rwrist -24.4447
rhand -22.2 -38.2097
rfingers 7.12502
rthumb 4.2156 -68.1477
lclavicle 2.57985e-014 -4.37326e-015
lhumerus -62.5145 24.5973 48.217
lradius 8.06298
lwrist -22.2803
lhand -17.2834 -4.73881
lfingers 7.12502
lthumb 8.96186 25.0509
rfemur 0.5994 6.34505 19.1141
rtibia 51.3788
rfoot 22.6697 -3.02214
rtoes 9.84185
lfemur -36.2191 2.27252 -20.8534
ltibia 35.1268
lfoot -5.07645 0.373987
ltoes 7.90658
286
root 8.11134 16.3916 23.2203 5.57939 -10.2875 -0.0199171
lowerback -1.38358 5.13221 -0.443824
upperback -2.88496 6.82602 -1.27127
thorax -2.08701 3.40742 -1.08284
lowerneck -10.9122 -0.623138 -2.04741
upperneck 13.7152 -0.876525 2.50271
head 5.96665 -0.337633 1.05493
rclavicle 1.04362e-015 1.74931e-014
rhumerus -22.2299 3.39737 -83.9423
rradius 60.8563
rwrist -24.8826
rhand -22.2238 -38.6117
rfingers 7.12502
rthumb 4.19265 -68.5502
lclavicle 1.04362e-015 1.74931e-014
lhumerus -62.2504 25.5409 48.0391
lradius 8.35071
lwrist -22.7276
lhand -18.0026 -4.92552
lfingers 7.12502
lthumb 8.26786 24.8927
rfemur -0.996518 6.54307 18.2618
rtibia 54.5554
rfoot 23.2437 -7.89867
rtoes 16.9918
lfemur -35.1622 2.34406 -21.7979
ltibia 35.2416
lfoot -5.7546 0.125119
ltoes 6.77305
287
root 8.13002 16.4211 23.434 5.4185 -10.514 0.475747
lowerback -1.28565 5.05912 -0.91402
upperback -2.80649 6.72453 -1.44278
thorax -2.09578 3.36397 -1.00622
lowerneck -10.9903 -0.539515 -1.88839
upperneck 13.6545 -0.764534 2.34807
head 5.95709 -0.286683 0.988906
rclavicle 3.92941e-014 -2.42517e-014
rhumerus -22.9973 3.41596 -84.5458
rradius 60.3523
rwrist -25.0673
rhand -22.0721 -39.0487
rfingers 7.12502
rthumb 4.3391 -68.9843
lclavicle 3.92941e-014 -2.42517e-014
lhumerus -62.0436 26.353 47.838
lradius 8.44053
lwrist -23.2259
lhand -18.4162 -5.26864
lfingers 7.12502
lthumb 7.86865 24.5649
rfemur -2.83893 6.66527 17.6618
rtibia 57.5501
rfoot 23.1422 -10.322
rtoes 16.096
lfemur -34.0858 2.31933 -22.542
ltibia 35.1963
lfoot -6.71641 0.0342034
ltoes 7.15043
